<svg xmlns="http://www.w3.org/2000/svg" viewBox="0 0 926 428"><g transform="
          rotate(0 463 214) 
          translate(-0 -0)
          scale(1)
        "><rect width="926" height="428" fill="rgb(204, 184, 61)"></rect><g transform="translate(0, 0)"><path fill="rgb(157, 175, 71)" fill-opacity="1" d="M0,32.697L2.912,28.994C5.824,25.292,11.648,17.886,17.472,17.154C23.296,16.422,29.119,22.364,34.943,22.002C40.767,21.64,46.591,14.974,52.415,10.543C58.239,6.112,64.063,3.916,69.887,3.58C75.711,3.244,81.535,4.768,87.358,7.537C93.182,10.305,99.006,14.317,104.83,13.956C110.654,13.595,116.478,8.86,122.302,10.11C128.126,11.36,133.95,18.593,139.774,19.951C145.597,21.308,151.421,16.79,157.245,14.384C163.069,11.979,168.893,11.687,174.717,12.002C180.541,12.318,186.365,13.241,192.189,12.381C198.013,11.521,203.836,8.878,209.66,6.706C215.484,4.533,221.308,2.83,227.132,4.67C232.956,6.51,238.78,11.893,244.604,14.952C250.428,18.011,256.252,18.745,262.075,20.144C267.899,21.542,273.723,23.605,279.547,24.436C285.371,25.267,291.195,24.867,297.019,22.75C302.843,20.633,308.667,16.799,314.491,16.682C320.314,16.566,326.138,20.166,331.962,19.103C337.786,18.04,343.61,12.314,349.434,14.259C355.258,16.204,361.082,25.821,366.906,26.624C372.73,27.427,378.553,19.415,384.377,14.196C390.201,8.977,396.025,6.549,401.849,5.481C407.673,4.413,413.497,4.703,419.321,6.746C425.145,8.789,430.969,12.583,436.792,15.888C442.616,19.192,448.44,22.005,454.264,20.989C460.088,19.972,465.912,15.126,471.736,15.501C477.56,15.875,483.384,21.472,489.208,23.639C495.031,25.806,500.855,24.543,506.679,24.372C512.503,24.202,518.327,25.123,524.151,24.485C529.975,23.847,535.799,21.65,541.623,23.02C547.447,24.391,553.27,29.328,559.094,27.444C564.918,25.559,570.742,16.853,576.566,12.407C582.39,7.96,588.214,7.775,594.038,7.875C599.862,7.976,605.686,8.362,611.509,12.158C617.333,15.953,623.157,23.157,628.981,22.289C634.805,21.421,640.629,12.481,646.453,7.564C652.277,2.647,658.101,1.754,663.925,2.152C669.748,2.55,675.572,4.24,681.396,6.426C687.22,8.613,693.044,11.297,698.868,10.697C704.692,10.097,710.516,6.214,716.34,9.241C722.164,12.268,727.987,22.205,733.811,22.464C739.635,22.723,745.459,13.303,751.283,13.1C757.107,12.898,762.931,21.913,768.755,24.5C774.579,27.088,780.403,23.248,786.226,23.111C792.05,22.974,797.874,26.54,803.698,25.196C809.522,23.853,815.346,17.599,821.17,16.552C826.994,15.504,832.818,19.661,838.642,17.881C844.465,16.1,850.289,8.381,856.113,7.2C861.937,6.02,867.761,11.377,873.585,11.699C879.409,12.022,885.233,7.311,891.057,7.986C896.881,8.661,902.704,14.722,908.528,17.31C914.352,19.898,920.176,19.014,923.088,18.571L926,18.129L926,428L923.088,428C920.176,428,914.352,428,908.528,428C902.704,428,896.881,428,891.057,428C885.233,428,879.409,428,873.585,428C867.761,428,861.937,428,856.113,428C850.289,428,844.465,428,838.642,428C832.818,428,826.994,428,821.17,428C815.346,428,809.522,428,803.698,428C797.874,428,792.05,428,786.226,428C780.403,428,774.579,428,768.755,428C762.931,428,757.107,428,751.283,428C745.459,428,739.635,428,733.811,428C727.987,428,722.164,428,716.34,428C710.516,428,704.692,428,698.868,428C693.044,428,687.22,428,681.396,428C675.572,428,669.748,428,663.925,428C658.101,428,652.277,428,646.453,428C640.629,428,634.805,428,628.981,428C623.157,428,617.333,428,611.509,428C605.686,428,599.862,428,594.038,428C588.214,428,582.39,428,576.566,428C570.742,428,564.918,428,559.094,428C553.27,428,547.447,428,541.623,428C535.799,428,529.975,428,524.151,428C518.327,428,512.503,428,506.679,428C500.855,428,495.031,428,489.208,428C483.384,428,477.56,428,471.736,428C465.912,428,460.088,428,454.264,428C448.44,428,442.616,428,436.792,428C430.969,428,425.145,428,419.321,428C413.497,428,407.673,428,401.849,428C396.025,428,390.201,428,384.377,428C378.553,428,372.73,428,366.906,428C361.082,428,355.258,428,349.434,428C343.61,428,337.786,428,331.962,428C326.138,428,320.314,428,314.491,428C308.667,428,302.843,428,297.019,428C291.195,428,285.371,428,279.547,428C273.723,428,267.899,428,262.075,428C256.252,428,250.428,428,244.604,428C238.78,428,232.956,428,227.132,428C221.308,428,215.484,428,209.66,428C203.836,428,198.013,428,192.189,428C186.365,428,180.541,428,174.717,428C168.893,428,163.069,428,157.245,428C151.421,428,145.597,428,139.774,428C133.95,428,128.126,428,122.302,428C116.478,428,110.654,428,104.83,428C99.006,428,93.182,428,87.358,428C81.535,428,75.711,428,69.887,428C64.063,428,58.239,428,52.415,428C46.591,428,40.767,428,34.943,428C29.119,428,23.296,428,17.472,428C11.648,428,5.824,428,2.912,428L0,428Z"></path></g><g transform="translate(0, 35.666666666666664)"><path fill="rgb(113, 167, 81)" fill-opacity="1" d="M0,4.032L2.912,6.638C5.824,9.245,11.648,14.458,17.472,15.252C23.296,16.046,29.119,12.42,34.943,10.316C40.767,8.213,46.591,7.631,52.415,8.54C58.239,9.449,64.063,11.849,69.887,12.18C75.711,12.511,81.535,10.774,87.358,10.46C93.182,10.147,99.006,11.256,104.83,11.044C110.654,10.831,116.478,9.297,122.302,11.618C128.126,13.94,133.95,20.118,139.774,20.114C145.597,20.109,151.421,13.922,157.245,13.648C163.069,13.374,168.893,19.013,174.717,18.427C180.541,17.841,186.365,11.03,192.189,8.548C198.013,6.067,203.836,7.913,209.66,8.317C215.484,8.721,221.308,7.682,227.132,11.531C232.956,15.381,238.78,24.121,244.604,24.192C250.428,24.263,256.252,15.666,262.075,10.849C267.899,6.032,273.723,4.995,279.547,8.779C285.371,12.563,291.195,21.169,297.019,21.421C302.843,21.672,308.667,13.57,314.491,10.293C320.314,7.016,326.138,8.563,331.962,12.564C337.786,16.564,343.61,23.018,349.434,26.552C355.258,30.086,361.082,30.7,366.906,29.24C372.73,27.78,378.553,24.246,384.377,19.968C390.201,15.69,396.025,10.667,401.849,12.922C407.673,15.178,413.497,24.711,419.321,28.287C425.145,31.862,430.969,29.479,436.792,24.216C442.616,18.952,448.44,10.808,454.264,8.05C460.088,5.292,465.912,7.92,471.736,12.781C477.56,17.641,483.384,24.733,489.208,26.309C495.031,27.885,500.855,23.945,506.679,24.204C512.503,24.463,518.327,28.922,524.151,26.715C529.975,24.507,535.799,15.634,541.623,14.758C547.447,13.881,553.27,21.001,559.094,23.339C564.918,25.677,570.742,23.234,576.566,23.411C582.39,23.587,588.214,26.383,594.038,24.277C599.862,22.17,605.686,15.161,611.509,14.502C617.333,13.842,623.157,19.534,628.981,23.236C634.805,26.938,640.629,28.65,646.453,24.507C652.277,20.364,658.101,10.366,663.925,9.386C669.748,8.407,675.572,16.447,681.396,17.188C687.22,17.929,693.044,11.371,698.868,12.798C704.692,14.224,710.516,23.635,716.34,25.672C722.164,27.709,727.987,22.372,733.811,19.14C739.635,15.907,745.459,14.779,751.283,15.916C757.107,17.053,762.931,20.455,768.755,19.385C774.579,18.314,780.403,12.771,786.226,12.569C792.05,12.367,797.874,17.507,803.698,22.031C809.522,26.556,815.346,30.464,821.17,31.492C826.994,32.519,832.818,30.665,838.642,25.872C844.465,21.079,850.289,13.346,856.113,11.297C861.937,9.248,867.761,12.883,873.585,17.351C879.409,21.819,885.233,27.121,891.057,26.43C896.881,25.739,902.704,19.056,908.528,18.339C914.352,17.622,920.176,22.87,923.088,25.495L926,28.119L926,392.333L923.088,392.333C920.176,392.333,914.352,392.333,908.528,392.333C902.704,392.333,896.881,392.333,891.057,392.333C885.233,392.333,879.409,392.333,873.585,392.333C867.761,392.333,861.937,392.333,856.113,392.333C850.289,392.333,844.465,392.333,838.642,392.333C832.818,392.333,826.994,392.333,821.17,392.333C815.346,392.333,809.522,392.333,803.698,392.333C797.874,392.333,792.05,392.333,786.226,392.333C780.403,392.333,774.579,392.333,768.755,392.333C762.931,392.333,757.107,392.333,751.283,392.333C745.459,392.333,739.635,392.333,733.811,392.333C727.987,392.333,722.164,392.333,716.34,392.333C710.516,392.333,704.692,392.333,698.868,392.333C693.044,392.333,687.22,392.333,681.396,392.333C675.572,392.333,669.748,392.333,663.925,392.333C658.101,392.333,652.277,392.333,646.453,392.333C640.629,392.333,634.805,392.333,628.981,392.333C623.157,392.333,617.333,392.333,611.509,392.333C605.686,392.333,599.862,392.333,594.038,392.333C588.214,392.333,582.39,392.333,576.566,392.333C570.742,392.333,564.918,392.333,559.094,392.333C553.27,392.333,547.447,392.333,541.623,392.333C535.799,392.333,529.975,392.333,524.151,392.333C518.327,392.333,512.503,392.333,506.679,392.333C500.855,392.333,495.031,392.333,489.208,392.333C483.384,392.333,477.56,392.333,471.736,392.333C465.912,392.333,460.088,392.333,454.264,392.333C448.44,392.333,442.616,392.333,436.792,392.333C430.969,392.333,425.145,392.333,419.321,392.333C413.497,392.333,407.673,392.333,401.849,392.333C396.025,392.333,390.201,392.333,384.377,392.333C378.553,392.333,372.73,392.333,366.906,392.333C361.082,392.333,355.258,392.333,349.434,392.333C343.61,392.333,337.786,392.333,331.962,392.333C326.138,392.333,320.314,392.333,314.491,392.333C308.667,392.333,302.843,392.333,297.019,392.333C291.195,392.333,285.371,392.333,279.547,392.333C273.723,392.333,267.899,392.333,262.075,392.333C256.252,392.333,250.428,392.333,244.604,392.333C238.78,392.333,232.956,392.333,227.132,392.333C221.308,392.333,215.484,392.333,209.66,392.333C203.836,392.333,198.013,392.333,192.189,392.333C186.365,392.333,180.541,392.333,174.717,392.333C168.893,392.333,163.069,392.333,157.245,392.333C151.421,392.333,145.597,392.333,139.774,392.333C133.95,392.333,128.126,392.333,122.302,392.333C116.478,392.333,110.654,392.333,104.83,392.333C99.006,392.333,93.182,392.333,87.358,392.333C81.535,392.333,75.711,392.333,69.887,392.333C64.063,392.333,58.239,392.333,52.415,392.333C46.591,392.333,40.767,392.333,34.943,392.333C29.119,392.333,23.296,392.333,17.472,392.333C11.648,392.333,5.824,392.333,2.912,392.333L0,392.333Z"></path></g><g transform="translate(0, 71.33333333333333)"><path fill="rgb(74, 157, 89)" fill-opacity="1" d="M0,22.987L2.912,19.775C5.824,16.562,11.648,10.138,17.472,9.476C23.296,8.814,29.119,13.916,34.943,17.064C40.767,20.212,46.591,21.407,52.415,19.023C58.239,16.639,64.063,10.676,69.887,10.528C75.711,10.379,81.535,16.045,87.358,18.872C93.182,21.699,99.006,21.686,104.83,23.847C110.654,26.009,116.478,30.344,122.302,29.845C128.126,29.346,133.95,24.014,139.774,20.611C145.597,17.208,151.421,15.734,157.245,18.358C163.069,20.982,168.893,27.704,174.717,29.862C180.541,32.02,186.365,29.613,192.189,29.443C198.013,29.273,203.836,31.339,209.66,29.958C215.484,28.578,221.308,23.752,227.132,23.989C232.956,24.227,238.78,29.527,244.604,28.324C250.428,27.122,256.252,19.416,262.075,17.989C267.899,16.561,273.723,21.412,279.547,21.56C285.371,21.708,291.195,17.153,297.019,14.262C302.843,11.37,308.667,10.143,314.491,10.554C320.314,10.964,326.138,13.013,331.962,12.695C337.786,12.378,343.61,9.694,349.434,10.097C355.258,10.499,361.082,13.986,366.906,15.378C372.73,16.77,378.553,16.067,384.377,14.692C390.201,13.317,396.025,11.27,401.849,14.62C407.673,17.97,413.497,26.717,419.321,25.325C425.145,23.934,430.969,12.404,436.792,10.189C442.616,7.974,448.44,15.072,454.264,19.888C460.088,24.703,465.912,27.235,471.736,25.508C477.56,23.781,483.384,17.795,489.208,17.951C495.031,18.107,500.855,24.406,506.679,24.824C512.503,25.242,518.327,19.779,524.151,14.985C529.975,10.19,535.799,6.064,541.623,9.531C547.447,12.998,553.27,24.059,559.094,27.995C564.918,31.932,570.742,28.744,576.566,25.275C582.39,21.806,588.214,18.056,594.038,19.711C599.862,21.366,605.686,28.426,611.509,26.562C617.333,24.697,623.157,13.909,628.981,9.558C634.805,5.208,640.629,7.296,646.453,8.855C652.277,10.414,658.101,11.443,663.925,11.544C669.748,11.645,675.572,10.819,681.396,11.73C687.22,12.641,693.044,15.29,698.868,13.68C704.692,12.071,710.516,6.203,716.34,7.218C722.164,8.232,727.987,16.129,733.811,18.319C739.635,20.509,745.459,16.991,751.283,18.462C757.107,19.933,762.931,26.392,768.755,28.906C774.579,31.421,780.403,29.991,786.226,29.722C792.05,29.454,797.874,30.347,803.698,28.467C809.522,26.587,815.346,21.934,821.17,22.558C826.994,23.183,832.818,29.084,838.642,29.967C844.465,30.851,850.289,26.718,856.113,22.567C861.937,18.417,867.761,14.249,873.585,15.224C879.409,16.199,885.233,22.316,891.057,22.171C896.881,22.027,902.704,15.62,908.528,13.561C914.352,11.501,920.176,13.788,923.088,14.931L926,16.075L926,356.667L923.088,356.667C920.176,356.667,914.352,356.667,908.528,356.667C902.704,356.667,896.881,356.667,891.057,356.667C885.233,356.667,879.409,356.667,873.585,356.667C867.761,356.667,861.937,356.667,856.113,356.667C850.289,356.667,844.465,356.667,838.642,356.667C832.818,356.667,826.994,356.667,821.17,356.667C815.346,356.667,809.522,356.667,803.698,356.667C797.874,356.667,792.05,356.667,786.226,356.667C780.403,356.667,774.579,356.667,768.755,356.667C762.931,356.667,757.107,356.667,751.283,356.667C745.459,356.667,739.635,356.667,733.811,356.667C727.987,356.667,722.164,356.667,716.34,356.667C710.516,356.667,704.692,356.667,698.868,356.667C693.044,356.667,687.22,356.667,681.396,356.667C675.572,356.667,669.748,356.667,663.925,356.667C658.101,356.667,652.277,356.667,646.453,356.667C640.629,356.667,634.805,356.667,628.981,356.667C623.157,356.667,617.333,356.667,611.509,356.667C605.686,356.667,599.862,356.667,594.038,356.667C588.214,356.667,582.39,356.667,576.566,356.667C570.742,356.667,564.918,356.667,559.094,356.667C553.27,356.667,547.447,356.667,541.623,356.667C535.799,356.667,529.975,356.667,524.151,356.667C518.327,356.667,512.503,356.667,506.679,356.667C500.855,356.667,495.031,356.667,489.208,356.667C483.384,356.667,477.56,356.667,471.736,356.667C465.912,356.667,460.088,356.667,454.264,356.667C448.44,356.667,442.616,356.667,436.792,356.667C430.969,356.667,425.145,356.667,419.321,356.667C413.497,356.667,407.673,356.667,401.849,356.667C396.025,356.667,390.201,356.667,384.377,356.667C378.553,356.667,372.73,356.667,366.906,356.667C361.082,356.667,355.258,356.667,349.434,356.667C343.61,356.667,337.786,356.667,331.962,356.667C326.138,356.667,320.314,356.667,314.491,356.667C308.667,356.667,302.843,356.667,297.019,356.667C291.195,356.667,285.371,356.667,279.547,356.667C273.723,356.667,267.899,356.667,262.075,356.667C256.252,356.667,250.428,356.667,244.604,356.667C238.78,356.667,232.956,356.667,227.132,356.667C221.308,356.667,215.484,356.667,209.66,356.667C203.836,356.667,198.013,356.667,192.189,356.667C186.365,356.667,180.541,356.667,174.717,356.667C168.893,356.667,163.069,356.667,157.245,356.667C151.421,356.667,145.597,356.667,139.774,356.667C133.95,356.667,128.126,356.667,122.302,356.667C116.478,356.667,110.654,356.667,104.83,356.667C99.006,356.667,93.182,356.667,87.358,356.667C81.535,356.667,75.711,356.667,69.887,356.667C64.063,356.667,58.239,356.667,52.415,356.667C46.591,356.667,40.767,356.667,34.943,356.667C29.119,356.667,23.296,356.667,17.472,356.667C11.648,356.667,5.824,356.667,2.912,356.667L0,356.667Z"></path></g><g transform="translate(0, 107)"><path fill="rgb(44, 147, 96)" fill-opacity="1" d="M0,2.735L2.912,7.721C5.824,12.706,11.648,22.677,17.472,22.774C23.296,22.871,29.119,13.093,34.943,9.519C40.767,5.946,46.591,8.576,52.415,9.702C58.239,10.828,64.063,10.449,69.887,14.109C75.711,17.768,81.535,25.466,87.358,24.205C93.182,22.944,99.006,12.723,104.83,10.359C110.654,7.995,116.478,13.487,122.302,15.1C128.126,16.713,133.95,14.447,139.774,14.812C145.597,15.178,151.421,18.176,157.245,20.389C163.069,22.602,168.893,24.03,174.717,25.119C180.541,26.207,186.365,26.957,192.189,22.796C198.013,18.636,203.836,9.565,209.66,9.587C215.484,9.608,221.308,18.722,227.132,23.898C232.956,29.073,238.78,30.311,244.604,26.57C250.428,22.829,256.252,14.109,262.075,14.053C267.899,13.996,273.723,22.603,279.547,26.199C285.371,29.795,291.195,28.38,297.019,23.808C302.843,19.236,308.667,11.507,314.491,10.847C320.314,10.187,326.138,16.596,331.962,17.785C337.786,18.974,343.61,14.942,349.434,12.075C355.258,9.207,361.082,7.503,366.906,7.648C372.73,7.792,378.553,9.786,384.377,10.428C390.201,11.071,396.025,10.363,401.849,12.764C407.673,15.165,413.497,20.676,419.321,23.517C425.145,26.358,430.969,26.531,436.792,25.099C442.616,23.667,448.44,20.63,454.264,16.52C460.088,12.41,465.912,7.228,471.736,8.789C477.56,10.35,483.384,18.655,489.208,22.907C495.031,27.158,500.855,27.356,506.679,28.653C512.503,29.95,518.327,32.346,524.151,33.692C529.975,35.037,535.799,35.332,541.623,33.928C547.447,32.524,553.27,29.42,559.094,29.148C564.918,28.877,570.742,31.437,576.566,30.392C582.39,29.347,588.214,24.697,594.038,21.884C599.862,19.072,605.686,18.097,611.509,15.61C617.333,13.123,623.157,9.123,628.981,10.646C634.805,12.169,640.629,19.215,646.453,24.037C652.277,28.86,658.101,31.461,663.925,29.704C669.748,27.947,675.572,21.832,681.396,18.085C687.22,14.338,693.044,12.959,698.868,11.769C704.692,10.58,710.516,9.58,716.34,8.277C722.164,6.975,727.987,5.37,733.811,8.646C739.635,11.923,745.459,20.081,751.283,25.237C757.107,30.393,762.931,32.546,768.755,31.597C774.579,30.649,780.403,26.599,786.226,22.317C792.05,18.034,797.874,13.52,803.698,12.888C809.522,12.256,815.346,15.507,821.17,19.034C826.994,22.562,832.818,26.366,838.642,23.707C844.465,21.048,850.289,11.925,856.113,10.206C861.937,8.487,867.761,14.173,873.585,15.61C879.409,17.047,885.233,14.235,891.057,15.645C896.881,17.054,902.704,22.684,908.528,21.134C914.352,19.584,920.176,10.854,923.088,6.489L926,2.124L926,321L923.088,321C920.176,321,914.352,321,908.528,321C902.704,321,896.881,321,891.057,321C885.233,321,879.409,321,873.585,321C867.761,321,861.937,321,856.113,321C850.289,321,844.465,321,838.642,321C832.818,321,826.994,321,821.17,321C815.346,321,809.522,321,803.698,321C797.874,321,792.05,321,786.226,321C780.403,321,774.579,321,768.755,321C762.931,321,757.107,321,751.283,321C745.459,321,739.635,321,733.811,321C727.987,321,722.164,321,716.34,321C710.516,321,704.692,321,698.868,321C693.044,321,687.22,321,681.396,321C675.572,321,669.748,321,663.925,321C658.101,321,652.277,321,646.453,321C640.629,321,634.805,321,628.981,321C623.157,321,617.333,321,611.509,321C605.686,321,599.862,321,594.038,321C588.214,321,582.39,321,576.566,321C570.742,321,564.918,321,559.094,321C553.27,321,547.447,321,541.623,321C535.799,321,529.975,321,524.151,321C518.327,321,512.503,321,506.679,321C500.855,321,495.031,321,489.208,321C483.384,321,477.56,321,471.736,321C465.912,321,460.088,321,454.264,321C448.44,321,442.616,321,436.792,321C430.969,321,425.145,321,419.321,321C413.497,321,407.673,321,401.849,321C396.025,321,390.201,321,384.377,321C378.553,321,372.73,321,366.906,321C361.082,321,355.258,321,349.434,321C343.61,321,337.786,321,331.962,321C326.138,321,320.314,321,314.491,321C308.667,321,302.843,321,297.019,321C291.195,321,285.371,321,279.547,321C273.723,321,267.899,321,262.075,321C256.252,321,250.428,321,244.604,321C238.78,321,232.956,321,227.132,321C221.308,321,215.484,321,209.66,321C203.836,321,198.013,321,192.189,321C186.365,321,180.541,321,174.717,321C168.893,321,163.069,321,157.245,321C151.421,321,145.597,321,139.774,321C133.95,321,128.126,321,122.302,321C116.478,321,110.654,321,104.83,321C99.006,321,93.182,321,87.358,321C81.535,321,75.711,321,69.887,321C64.063,321,58.239,321,52.415,321C46.591,321,40.767,321,34.943,321C29.119,321,23.296,321,17.472,321C11.648,321,5.824,321,2.912,321L0,321Z"></path></g><g transform="translate(0, 142.66666666666666)"><path fill="rgb(24, 136, 100)" fill-opacity="1" d="M0,5.057L2.912,4.266C5.824,3.475,11.648,1.892,17.472,5.745C23.296,9.598,29.119,18.887,34.943,22.24C40.767,25.592,46.591,23.008,52.415,19.852C58.239,16.695,64.063,12.967,69.887,10.515C75.711,8.064,81.535,6.889,87.358,10.342C93.182,13.796,99.006,21.878,104.83,26.608C110.654,31.338,116.478,32.717,122.302,31.509C128.126,30.3,133.95,26.504,139.774,21.076C145.597,15.647,151.421,8.586,157.245,5.464C163.069,2.343,168.893,3.16,174.717,8.095C180.541,13.03,186.365,22.083,192.189,24.494C198.013,26.905,203.836,22.674,209.66,18.842C215.484,15.011,221.308,11.578,227.132,9.328C232.956,7.079,238.78,6.014,244.604,7.44C250.428,8.867,256.252,12.785,262.075,17.861C267.899,22.937,273.723,29.171,279.547,32.264C285.371,35.357,291.195,35.308,297.019,34.415C302.843,33.523,308.667,31.787,314.491,29.527C320.314,27.267,326.138,24.483,331.962,23.388C337.786,22.293,343.61,22.887,349.434,23.334C355.258,23.781,361.082,24.08,366.906,24.512C372.73,24.943,378.553,25.506,384.377,25.603C390.201,25.701,396.025,25.334,401.849,25.202C407.673,25.07,413.497,25.173,419.321,23.142C425.145,21.11,430.969,16.943,436.792,15.623C442.616,14.303,448.44,15.829,454.264,15.828C460.088,15.827,465.912,14.299,471.736,15.951C477.56,17.604,483.384,22.437,489.208,21.278C495.031,20.12,500.855,12.97,506.679,10.524C512.503,8.077,518.327,10.333,524.151,12.687C529.975,15.04,535.799,17.49,541.623,19.352C547.447,21.213,553.27,22.486,559.094,23.727C564.918,24.968,570.742,26.178,576.566,26.812C582.39,27.446,588.214,27.504,594.038,28.323C599.862,29.142,605.686,30.72,611.509,29.087C617.333,27.454,623.157,22.609,628.981,21.909C634.805,21.208,640.629,24.652,646.453,24.435C652.277,24.218,658.101,20.341,663.925,20.09C669.748,19.84,675.572,23.217,681.396,26.207C687.22,29.196,693.044,31.799,698.868,29.961C704.692,28.123,710.516,21.845,716.34,20.534C722.164,19.223,727.987,22.879,733.811,24.241C739.635,25.603,745.459,24.671,751.283,24.448C757.107,24.225,762.931,24.711,768.755,22.431C774.579,20.151,780.403,15.105,786.226,14.168C792.05,13.231,797.874,16.403,803.698,14.754C809.522,13.105,815.346,6.634,821.17,4.827C826.994,3.02,832.818,5.876,838.642,11.639C844.465,17.403,850.289,26.074,856.113,28.642C861.937,31.21,867.761,27.675,873.585,27.577C879.409,27.478,885.233,30.817,891.057,27.856C896.881,24.895,902.704,15.634,908.528,15.381C914.352,15.127,920.176,23.882,923.088,28.259L926,32.636L926,285.333L923.088,285.333C920.176,285.333,914.352,285.333,908.528,285.333C902.704,285.333,896.881,285.333,891.057,285.333C885.233,285.333,879.409,285.333,873.585,285.333C867.761,285.333,861.937,285.333,856.113,285.333C850.289,285.333,844.465,285.333,838.642,285.333C832.818,285.333,826.994,285.333,821.17,285.333C815.346,285.333,809.522,285.333,803.698,285.333C797.874,285.333,792.05,285.333,786.226,285.333C780.403,285.333,774.579,285.333,768.755,285.333C762.931,285.333,757.107,285.333,751.283,285.333C745.459,285.333,739.635,285.333,733.811,285.333C727.987,285.333,722.164,285.333,716.34,285.333C710.516,285.333,704.692,285.333,698.868,285.333C693.044,285.333,687.22,285.333,681.396,285.333C675.572,285.333,669.748,285.333,663.925,285.333C658.101,285.333,652.277,285.333,646.453,285.333C640.629,285.333,634.805,285.333,628.981,285.333C623.157,285.333,617.333,285.333,611.509,285.333C605.686,285.333,599.862,285.333,594.038,285.333C588.214,285.333,582.39,285.333,576.566,285.333C570.742,285.333,564.918,285.333,559.094,285.333C553.27,285.333,547.447,285.333,541.623,285.333C535.799,285.333,529.975,285.333,524.151,285.333C518.327,285.333,512.503,285.333,506.679,285.333C500.855,285.333,495.031,285.333,489.208,285.333C483.384,285.333,477.56,285.333,471.736,285.333C465.912,285.333,460.088,285.333,454.264,285.333C448.44,285.333,442.616,285.333,436.792,285.333C430.969,285.333,425.145,285.333,419.321,285.333C413.497,285.333,407.673,285.333,401.849,285.333C396.025,285.333,390.201,285.333,384.377,285.333C378.553,285.333,372.73,285.333,366.906,285.333C361.082,285.333,355.258,285.333,349.434,285.333C343.61,285.333,337.786,285.333,331.962,285.333C326.138,285.333,320.314,285.333,314.491,285.333C308.667,285.333,302.843,285.333,297.019,285.333C291.195,285.333,285.371,285.333,279.547,285.333C273.723,285.333,267.899,285.333,262.075,285.333C256.252,285.333,250.428,285.333,244.604,285.333C238.78,285.333,232.956,285.333,227.132,285.333C221.308,285.333,215.484,285.333,209.66,285.333C203.836,285.333,198.013,285.333,192.189,285.333C186.365,285.333,180.541,285.333,174.717,285.333C168.893,285.333,163.069,285.333,157.245,285.333C151.421,285.333,145.597,285.333,139.774,285.333C133.95,285.333,128.126,285.333,122.302,285.333C116.478,285.333,110.654,285.333,104.83,285.333C99.006,285.333,93.182,285.333,87.358,285.333C81.535,285.333,75.711,285.333,69.887,285.333C64.063,285.333,58.239,285.333,52.415,285.333C46.591,285.333,40.767,285.333,34.943,285.333C29.119,285.333,23.296,285.333,17.472,285.333C11.648,285.333,5.824,285.333,2.912,285.333L0,285.333Z"></path></g><g transform="translate(0, 178.33333333333334)"><path fill="rgb(13, 124, 103)" fill-opacity="1" d="M0,22.684L2.912,23.72C5.824,24.756,11.648,26.829,17.472,28.17C23.296,29.512,29.119,30.122,34.943,31.187C40.767,32.252,46.591,33.771,52.415,30.12C58.239,26.469,64.063,17.648,69.887,16.033C75.711,14.418,81.535,20.009,87.358,20.585C93.182,21.161,99.006,16.721,104.83,12.993C110.654,9.266,116.478,6.25,122.302,4.536C128.126,2.821,133.95,2.408,139.774,4.266C145.597,6.124,151.421,10.253,157.245,12.546C163.069,14.839,168.893,15.296,174.717,15.474C180.541,15.651,186.365,15.549,192.189,14.175C198.013,12.801,203.836,10.155,209.66,12.01C215.484,13.866,221.308,20.222,227.132,20.319C232.956,20.417,238.78,14.255,244.604,10.797C250.428,7.339,256.252,6.584,262.075,7.751C267.899,8.918,273.723,12.006,279.547,11.049C285.371,10.092,291.195,5.09,297.019,3.189C302.843,1.289,308.667,2.49,314.491,4.686C320.314,6.883,326.138,10.075,331.962,9.839C337.786,9.603,343.61,5.938,349.434,9.383C355.258,12.827,361.082,23.382,366.906,24.195C372.73,25.008,378.553,16.08,384.377,16.057C390.201,16.034,396.025,24.916,401.849,26.078C407.673,27.241,413.497,20.683,419.321,20.358C425.145,20.034,430.969,25.942,436.792,25.493C442.616,25.043,448.44,18.236,454.264,14.192C460.088,10.149,465.912,8.87,471.736,9.81C477.56,10.75,483.384,13.909,489.208,16.263C495.031,18.618,500.855,20.168,506.679,21.153C512.503,22.138,518.327,22.559,524.151,18.98C529.975,15.401,535.799,7.822,541.623,6.164C547.447,4.505,553.27,8.768,559.094,13.293C564.918,17.818,570.742,22.604,576.566,23.389C582.39,24.174,588.214,20.957,594.038,18.074C599.862,15.192,605.686,12.644,611.509,14.914C617.333,17.185,623.157,24.273,628.981,27.275C634.805,30.277,640.629,29.191,646.453,26.647C652.277,24.103,658.101,20.1,663.925,19.841C669.748,19.582,675.572,23.068,681.396,22.314C687.22,21.559,693.044,16.564,698.868,16.793C704.692,17.022,710.516,22.475,716.34,23.626C722.164,24.777,727.987,21.627,733.811,22.58C739.635,23.533,745.459,28.59,751.283,27.199C757.107,25.809,762.931,17.971,768.755,14.38C774.579,10.789,780.403,11.445,786.226,11.295C792.05,11.145,797.874,10.189,803.698,11.956C809.522,13.723,815.346,18.214,821.17,22.175C826.994,26.136,832.818,29.567,838.642,25.799C844.465,22.032,850.289,11.065,856.113,10.931C861.937,10.798,867.761,21.499,873.585,27.126C879.409,32.753,885.233,33.307,891.057,29.495C896.881,25.683,902.704,17.503,908.528,14.39C914.352,11.277,920.176,13.23,923.088,14.207L926,15.183L926,249.667L923.088,249.667C920.176,249.667,914.352,249.667,908.528,249.667C902.704,249.667,896.881,249.667,891.057,249.667C885.233,249.667,879.409,249.667,873.585,249.667C867.761,249.667,861.937,249.667,856.113,249.667C850.289,249.667,844.465,249.667,838.642,249.667C832.818,249.667,826.994,249.667,821.17,249.667C815.346,249.667,809.522,249.667,803.698,249.667C797.874,249.667,792.05,249.667,786.226,249.667C780.403,249.667,774.579,249.667,768.755,249.667C762.931,249.667,757.107,249.667,751.283,249.667C745.459,249.667,739.635,249.667,733.811,249.667C727.987,249.667,722.164,249.667,716.34,249.667C710.516,249.667,704.692,249.667,698.868,249.667C693.044,249.667,687.22,249.667,681.396,249.667C675.572,249.667,669.748,249.667,663.925,249.667C658.101,249.667,652.277,249.667,646.453,249.667C640.629,249.667,634.805,249.667,628.981,249.667C623.157,249.667,617.333,249.667,611.509,249.667C605.686,249.667,599.862,249.667,594.038,249.667C588.214,249.667,582.39,249.667,576.566,249.667C570.742,249.667,564.918,249.667,559.094,249.667C553.27,249.667,547.447,249.667,541.623,249.667C535.799,249.667,529.975,249.667,524.151,249.667C518.327,249.667,512.503,249.667,506.679,249.667C500.855,249.667,495.031,249.667,489.208,249.667C483.384,249.667,477.56,249.667,471.736,249.667C465.912,249.667,460.088,249.667,454.264,249.667C448.44,249.667,442.616,249.667,436.792,249.667C430.969,249.667,425.145,249.667,419.321,249.667C413.497,249.667,407.673,249.667,401.849,249.667C396.025,249.667,390.201,249.667,384.377,249.667C378.553,249.667,372.73,249.667,366.906,249.667C361.082,249.667,355.258,249.667,349.434,249.667C343.61,249.667,337.786,249.667,331.962,249.667C326.138,249.667,320.314,249.667,314.491,249.667C308.667,249.667,302.843,249.667,297.019,249.667C291.195,249.667,285.371,249.667,279.547,249.667C273.723,249.667,267.899,249.667,262.075,249.667C256.252,249.667,250.428,249.667,244.604,249.667C238.78,249.667,232.956,249.667,227.132,249.667C221.308,249.667,215.484,249.667,209.66,249.667C203.836,249.667,198.013,249.667,192.189,249.667C186.365,249.667,180.541,249.667,174.717,249.667C168.893,249.667,163.069,249.667,157.245,249.667C151.421,249.667,145.597,249.667,139.774,249.667C133.95,249.667,128.126,249.667,122.302,249.667C116.478,249.667,110.654,249.667,104.83,249.667C99.006,249.667,93.182,249.667,87.358,249.667C81.535,249.667,75.711,249.667,69.887,249.667C64.063,249.667,58.239,249.667,52.415,249.667C46.591,249.667,40.767,249.667,34.943,249.667C29.119,249.667,23.296,249.667,17.472,249.667C11.648,249.667,5.824,249.667,2.912,249.667L0,249.667Z"></path></g><g transform="translate(0, 214)"><path fill="rgb(8, 111, 104)" fill-opacity="1" d="M0,26.547L2.912,22.819C5.824,19.09,11.648,11.634,17.472,9.869C23.296,8.105,29.119,12.033,34.943,13.727C40.767,15.421,46.591,14.881,52.415,14.176C58.239,13.472,64.063,12.603,69.887,12.871C75.711,13.138,81.535,14.542,87.358,15.977C93.182,17.412,99.006,18.877,104.83,21.832C110.654,24.787,116.478,29.232,122.302,28.177C128.126,27.123,133.95,20.569,139.774,15.599C145.597,10.628,151.421,7.24,157.245,9.131C163.069,11.022,168.893,18.191,174.717,17.785C180.541,17.378,186.365,9.395,192.189,7.718C198.013,6.041,203.836,10.67,209.66,11.847C215.484,13.023,221.308,10.747,227.132,10.154C232.956,9.56,238.78,10.648,244.604,14.771C250.428,18.895,256.252,26.053,262.075,27.578C267.899,29.102,273.723,24.992,279.547,22.573C285.371,20.154,291.195,19.425,297.019,17.002C302.843,14.578,308.667,10.46,314.491,10.542C320.314,10.624,326.138,14.907,331.962,14.263C337.786,13.619,343.61,8.048,349.434,9.39C355.258,10.733,361.082,18.988,366.906,21.075C372.73,23.161,378.553,19.077,384.377,15.963C390.201,12.849,396.025,10.704,401.849,11.202C407.673,11.701,413.497,14.843,419.321,15.41C425.145,15.976,430.969,13.967,436.792,14.113C442.616,14.258,448.44,16.558,454.264,15.286C460.088,14.013,465.912,9.168,471.736,11.124C477.56,13.081,483.384,21.84,489.208,25.017C495.031,28.194,500.855,25.789,506.679,20.98C512.503,16.171,518.327,8.957,524.151,7.616C529.975,6.274,535.799,10.805,541.623,13.044C547.447,15.283,553.27,15.229,559.094,14.612C564.918,13.995,570.742,12.816,576.566,12.709C582.39,12.602,588.214,13.568,594.038,14.495C599.862,15.421,605.686,16.308,611.509,17.801C617.333,19.293,623.157,21.392,628.981,22.626C634.805,23.859,640.629,24.227,646.453,22.052C652.277,19.877,658.101,15.157,663.925,14.063C669.748,12.969,675.572,15.5,681.396,17.225C687.22,18.95,693.044,19.869,698.868,20.604C704.692,21.339,710.516,21.889,716.34,23C722.164,24.11,727.987,25.78,733.811,22.154C739.635,18.528,745.459,9.606,751.283,6.343C757.107,3.08,762.931,5.476,768.755,9.636C774.579,13.796,780.403,19.72,786.226,23.282C792.05,26.843,797.874,28.044,803.698,27.085C809.522,26.126,815.346,23.008,821.17,18.265C826.994,13.522,832.818,7.154,838.642,5.332C844.465,3.511,850.289,6.237,856.113,7.698C861.937,9.158,867.761,9.354,873.585,10.197C879.409,11.041,885.233,12.531,891.057,12.985C896.881,13.438,902.704,12.854,908.528,15.364C914.352,17.874,920.176,23.478,923.088,26.28L926,29.082L926,214L923.088,214C920.176,214,914.352,214,908.528,214C902.704,214,896.881,214,891.057,214C885.233,214,879.409,214,873.585,214C867.761,214,861.937,214,856.113,214C850.289,214,844.465,214,838.642,214C832.818,214,826.994,214,821.17,214C815.346,214,809.522,214,803.698,214C797.874,214,792.05,214,786.226,214C780.403,214,774.579,214,768.755,214C762.931,214,757.107,214,751.283,214C745.459,214,739.635,214,733.811,214C727.987,214,722.164,214,716.34,214C710.516,214,704.692,214,698.868,214C693.044,214,687.22,214,681.396,214C675.572,214,669.748,214,663.925,214C658.101,214,652.277,214,646.453,214C640.629,214,634.805,214,628.981,214C623.157,214,617.333,214,611.509,214C605.686,214,599.862,214,594.038,214C588.214,214,582.39,214,576.566,214C570.742,214,564.918,214,559.094,214C553.27,214,547.447,214,541.623,214C535.799,214,529.975,214,524.151,214C518.327,214,512.503,214,506.679,214C500.855,214,495.031,214,489.208,214C483.384,214,477.56,214,471.736,214C465.912,214,460.088,214,454.264,214C448.44,214,442.616,214,436.792,214C430.969,214,425.145,214,419.321,214C413.497,214,407.673,214,401.849,214C396.025,214,390.201,214,384.377,214C378.553,214,372.73,214,366.906,214C361.082,214,355.258,214,349.434,214C343.61,214,337.786,214,331.962,214C326.138,214,320.314,214,314.491,214C308.667,214,302.843,214,297.019,214C291.195,214,285.371,214,279.547,214C273.723,214,267.899,214,262.075,214C256.252,214,250.428,214,244.604,214C238.78,214,232.956,214,227.132,214C221.308,214,215.484,214,209.66,214C203.836,214,198.013,214,192.189,214C186.365,214,180.541,214,174.717,214C168.893,214,163.069,214,157.245,214C151.421,214,145.597,214,139.774,214C133.95,214,128.126,214,122.302,214C116.478,214,110.654,214,104.83,214C99.006,214,93.182,214,87.358,214C81.535,214,75.711,214,69.887,214C64.063,214,58.239,214,52.415,214C46.591,214,40.767,214,34.943,214C29.119,214,23.296,214,17.472,214C11.648,214,5.824,214,2.912,214L0,214Z"></path></g><g transform="translate(0, 249.66666666666669)"><path fill="rgb(8, 97, 104)" fill-opacity="1" d="M0,2.67L2.912,8.009C5.824,13.347,11.648,24.025,17.472,27.441C23.296,30.857,29.119,27.013,34.943,21.539C40.767,16.065,46.591,8.961,52.415,8.609C58.239,8.257,64.063,14.656,69.887,16.507C75.711,18.359,81.535,15.663,87.358,16.283C93.182,16.903,99.006,20.837,104.83,24.26C110.654,27.683,116.478,30.593,122.302,29.997C128.126,29.401,133.95,25.298,139.774,20.067C145.597,14.835,151.421,8.476,157.245,5.943C163.069,3.41,168.893,4.704,174.717,4.413C180.541,4.122,186.365,2.247,192.189,2.226C198.013,2.205,203.836,4.039,209.66,6.651C215.484,9.264,221.308,12.655,227.132,17.483C232.956,22.31,238.78,28.573,244.604,28.206C250.428,27.838,256.252,20.839,262.075,18.989C267.899,17.14,273.723,20.439,279.547,23.592C285.371,26.745,291.195,29.752,297.019,26.976C302.843,24.2,308.667,15.641,314.491,15.684C320.314,15.726,326.138,24.371,331.962,27.489C337.786,30.607,343.61,28.198,349.434,27.725C355.258,27.252,361.082,28.716,366.906,27.218C372.73,25.721,378.553,21.262,384.377,20.044C390.201,18.825,396.025,20.846,401.849,23.033C407.673,25.22,413.497,27.573,419.321,26.432C425.145,25.29,430.969,20.653,436.792,16.867C442.616,13.081,448.44,10.145,454.264,8.546C460.088,6.948,465.912,6.686,471.736,8.101C477.56,9.515,483.384,12.605,489.208,12.165C495.031,11.725,500.855,7.756,506.679,6.635C512.503,5.514,518.327,7.242,524.151,12.493C529.975,17.743,535.799,26.517,541.623,28.908C547.447,31.3,553.27,27.311,559.094,21.637C564.918,15.962,570.742,8.603,576.566,10.559C582.39,12.515,588.214,23.786,594.038,23.853C599.862,23.92,605.686,12.784,611.509,10.074C617.333,7.364,623.157,13.081,628.981,15.764C634.805,18.446,640.629,18.095,646.453,16.461C652.277,14.827,658.101,11.91,663.925,14.234C669.748,16.559,675.572,24.124,681.396,28.562C687.22,33,693.044,34.312,698.868,33.677C704.692,33.041,710.516,30.458,716.34,28.795C722.164,27.132,727.987,26.389,733.811,23.718C739.635,21.046,745.459,16.447,751.283,17.911C757.107,19.376,762.931,26.904,768.755,28.033C774.579,29.162,780.403,23.891,786.226,18.452C792.05,13.013,797.874,7.406,803.698,6.988C809.522,6.57,815.346,11.341,821.17,11.281C826.994,11.221,832.818,6.329,838.642,5.525C844.465,4.721,850.289,8.004,856.113,10.099C861.937,12.194,867.761,13.101,873.585,15.755C879.409,18.409,885.233,22.81,891.057,21.153C896.881,19.496,902.704,11.781,908.528,7.52C914.352,3.26,920.176,2.455,923.088,2.052L926,1.649L926,178.333L923.088,178.333C920.176,178.333,914.352,178.333,908.528,178.333C902.704,178.333,896.881,178.333,891.057,178.333C885.233,178.333,879.409,178.333,873.585,178.333C867.761,178.333,861.937,178.333,856.113,178.333C850.289,178.333,844.465,178.333,838.642,178.333C832.818,178.333,826.994,178.333,821.17,178.333C815.346,178.333,809.522,178.333,803.698,178.333C797.874,178.333,792.05,178.333,786.226,178.333C780.403,178.333,774.579,178.333,768.755,178.333C762.931,178.333,757.107,178.333,751.283,178.333C745.459,178.333,739.635,178.333,733.811,178.333C727.987,178.333,722.164,178.333,716.34,178.333C710.516,178.333,704.692,178.333,698.868,178.333C693.044,178.333,687.22,178.333,681.396,178.333C675.572,178.333,669.748,178.333,663.925,178.333C658.101,178.333,652.277,178.333,646.453,178.333C640.629,178.333,634.805,178.333,628.981,178.333C623.157,178.333,617.333,178.333,611.509,178.333C605.686,178.333,599.862,178.333,594.038,178.333C588.214,178.333,582.39,178.333,576.566,178.333C570.742,178.333,564.918,178.333,559.094,178.333C553.27,178.333,547.447,178.333,541.623,178.333C535.799,178.333,529.975,178.333,524.151,178.333C518.327,178.333,512.503,178.333,506.679,178.333C500.855,178.333,495.031,178.333,489.208,178.333C483.384,178.333,477.56,178.333,471.736,178.333C465.912,178.333,460.088,178.333,454.264,178.333C448.44,178.333,442.616,178.333,436.792,178.333C430.969,178.333,425.145,178.333,419.321,178.333C413.497,178.333,407.673,178.333,401.849,178.333C396.025,178.333,390.201,178.333,384.377,178.333C378.553,178.333,372.73,178.333,366.906,178.333C361.082,178.333,355.258,178.333,349.434,178.333C343.61,178.333,337.786,178.333,331.962,178.333C326.138,178.333,320.314,178.333,314.491,178.333C308.667,178.333,302.843,178.333,297.019,178.333C291.195,178.333,285.371,178.333,279.547,178.333C273.723,178.333,267.899,178.333,262.075,178.333C256.252,178.333,250.428,178.333,244.604,178.333C238.78,178.333,232.956,178.333,227.132,178.333C221.308,178.333,215.484,178.333,209.66,178.333C203.836,178.333,198.013,178.333,192.189,178.333C186.365,178.333,180.541,178.333,174.717,178.333C168.893,178.333,163.069,178.333,157.245,178.333C151.421,178.333,145.597,178.333,139.774,178.333C133.95,178.333,128.126,178.333,122.302,178.333C116.478,178.333,110.654,178.333,104.83,178.333C99.006,178.333,93.182,178.333,87.358,178.333C81.535,178.333,75.711,178.333,69.887,178.333C64.063,178.333,58.239,178.333,52.415,178.333C46.591,178.333,40.767,178.333,34.943,178.333C29.119,178.333,23.296,178.333,17.472,178.333C11.648,178.333,5.824,178.333,2.912,178.333L0,178.333Z"></path></g><g transform="translate(0, 285.3333333333333)"><path fill="rgb(9, 82, 103)" fill-opacity="1" d="M0,26.811L2.912,23.298C5.824,19.785,11.648,12.759,17.472,11.13C23.296,9.502,29.119,13.271,34.943,18.191C40.767,23.111,46.591,29.18,52.415,28.071C58.239,26.961,64.063,18.673,69.887,16.367C75.711,14.061,81.535,17.739,87.358,20.432C93.182,23.125,99.006,24.834,104.83,27.116C110.654,29.398,116.478,32.253,122.302,32.289C128.126,32.324,133.95,29.541,139.774,28.822C145.597,28.102,151.421,29.447,157.245,30.102C163.069,30.757,168.893,30.72,174.717,27.026C180.541,23.331,186.365,15.977,192.189,16.396C198.013,16.816,203.836,25.008,209.66,26.305C215.484,27.602,221.308,22.003,227.132,21.935C232.956,21.867,238.78,27.329,244.604,28.412C250.428,29.496,256.252,26.201,262.075,21.395C267.899,16.59,273.723,10.274,279.547,11.113C285.371,11.951,291.195,19.944,297.019,23.98C302.843,28.016,308.667,28.095,314.491,23.67C320.314,19.246,326.138,10.319,331.962,7.205C337.786,4.091,343.61,6.79,349.434,12.488C355.258,18.186,361.082,26.881,366.906,25.353C372.73,23.824,378.553,12.072,384.377,7.933C390.201,3.795,396.025,7.272,401.849,8.255C407.673,9.237,413.497,7.726,419.321,10.215C425.145,12.703,430.969,19.191,436.792,18.768C442.616,18.344,448.44,11.009,454.264,12.189C460.088,13.369,465.912,23.064,471.736,24.042C477.56,25.019,483.384,17.281,489.208,14.895C495.031,12.51,500.855,15.477,506.679,17.846C512.503,20.215,518.327,21.986,524.151,24.713C529.975,27.441,535.799,31.125,541.623,27.334C547.447,23.543,553.27,12.276,559.094,11.482C564.918,10.688,570.742,20.367,576.566,24.901C582.39,29.434,588.214,28.822,594.038,29.288C599.862,29.753,605.686,31.295,611.509,26.876C617.333,22.457,623.157,12.077,628.981,8.004C634.805,3.932,640.629,6.166,646.453,6.54C652.277,6.914,658.101,5.429,663.925,7.03C669.748,8.63,675.572,13.316,681.396,17.196C687.22,21.075,693.044,24.147,698.868,22.847C704.692,21.547,710.516,15.874,716.34,14.29C722.164,12.707,727.987,15.212,733.811,15.411C739.635,15.61,745.459,13.503,751.283,12.115C757.107,10.727,762.931,10.058,768.755,14.003C774.579,17.948,780.403,26.508,786.226,27.527C792.05,28.546,797.874,22.023,803.698,19.165C809.522,16.307,815.346,17.113,821.17,17.073C826.994,17.033,832.818,16.148,838.642,14.568C844.465,12.989,850.289,10.717,856.113,8.677C861.937,6.638,867.761,4.831,873.585,5C879.409,5.17,885.233,7.315,891.057,12.099C896.881,16.882,902.704,24.303,908.528,25.478C914.352,26.652,920.176,21.58,923.088,19.043L926,16.507L926,142.667L923.088,142.667C920.176,142.667,914.352,142.667,908.528,142.667C902.704,142.667,896.881,142.667,891.057,142.667C885.233,142.667,879.409,142.667,873.585,142.667C867.761,142.667,861.937,142.667,856.113,142.667C850.289,142.667,844.465,142.667,838.642,142.667C832.818,142.667,826.994,142.667,821.17,142.667C815.346,142.667,809.522,142.667,803.698,142.667C797.874,142.667,792.05,142.667,786.226,142.667C780.403,142.667,774.579,142.667,768.755,142.667C762.931,142.667,757.107,142.667,751.283,142.667C745.459,142.667,739.635,142.667,733.811,142.667C727.987,142.667,722.164,142.667,716.34,142.667C710.516,142.667,704.692,142.667,698.868,142.667C693.044,142.667,687.22,142.667,681.396,142.667C675.572,142.667,669.748,142.667,663.925,142.667C658.101,142.667,652.277,142.667,646.453,142.667C640.629,142.667,634.805,142.667,628.981,142.667C623.157,142.667,617.333,142.667,611.509,142.667C605.686,142.667,599.862,142.667,594.038,142.667C588.214,142.667,582.39,142.667,576.566,142.667C570.742,142.667,564.918,142.667,559.094,142.667C553.27,142.667,547.447,142.667,541.623,142.667C535.799,142.667,529.975,142.667,524.151,142.667C518.327,142.667,512.503,142.667,506.679,142.667C500.855,142.667,495.031,142.667,489.208,142.667C483.384,142.667,477.56,142.667,471.736,142.667C465.912,142.667,460.088,142.667,454.264,142.667C448.44,142.667,442.616,142.667,436.792,142.667C430.969,142.667,425.145,142.667,419.321,142.667C413.497,142.667,407.673,142.667,401.849,142.667C396.025,142.667,390.201,142.667,384.377,142.667C378.553,142.667,372.73,142.667,366.906,142.667C361.082,142.667,355.258,142.667,349.434,142.667C343.61,142.667,337.786,142.667,331.962,142.667C326.138,142.667,320.314,142.667,314.491,142.667C308.667,142.667,302.843,142.667,297.019,142.667C291.195,142.667,285.371,142.667,279.547,142.667C273.723,142.667,267.899,142.667,262.075,142.667C256.252,142.667,250.428,142.667,244.604,142.667C238.78,142.667,232.956,142.667,227.132,142.667C221.308,142.667,215.484,142.667,209.66,142.667C203.836,142.667,198.013,142.667,192.189,142.667C186.365,142.667,180.541,142.667,174.717,142.667C168.893,142.667,163.069,142.667,157.245,142.667C151.421,142.667,145.597,142.667,139.774,142.667C133.95,142.667,128.126,142.667,122.302,142.667C116.478,142.667,110.654,142.667,104.83,142.667C99.006,142.667,93.182,142.667,87.358,142.667C81.535,142.667,75.711,142.667,69.887,142.667C64.063,142.667,58.239,142.667,52.415,142.667C46.591,142.667,40.767,142.667,34.943,142.667C29.119,142.667,23.296,142.667,17.472,142.667C11.648,142.667,5.824,142.667,2.912,142.667L0,142.667Z"></path></g><g transform="translate(0, 321)"><path fill="rgb(12, 67, 102)" fill-opacity="1" d="M0,14.684L2.912,12.912C5.824,11.14,11.648,7.595,17.472,10.621C23.296,13.647,29.119,23.244,34.943,23.817C40.767,24.391,46.591,15.941,52.415,15.354C58.239,14.767,64.063,22.042,69.887,23.283C75.711,24.524,81.535,19.732,87.358,17.383C93.182,15.034,99.006,15.128,104.83,12.941C110.654,10.754,116.478,6.286,122.302,6.083C128.126,5.879,133.95,9.94,139.774,12.62C145.597,15.3,151.421,16.599,157.245,19.493C163.069,22.387,168.893,26.877,174.717,29.274C180.541,31.671,186.365,31.974,192.189,28.456C198.013,24.939,203.836,17.6,209.66,14.25C215.484,10.901,221.308,11.54,227.132,10.233C232.956,8.927,238.78,5.674,244.604,6.494C250.428,7.313,256.252,12.205,262.075,12.671C267.899,13.137,273.723,9.177,279.547,9.555C285.371,9.934,291.195,14.65,297.019,17.86C302.843,21.07,308.667,22.775,314.491,21.582C320.314,20.39,326.138,16.301,331.962,13.036C337.786,9.771,343.61,7.33,349.434,11.194C355.258,15.059,361.082,25.228,366.906,24.67C372.73,24.113,378.553,12.828,384.377,10.638C390.201,8.447,396.025,15.352,401.849,20.298C407.673,25.244,413.497,28.232,419.321,28.659C425.145,29.085,430.969,26.952,436.792,21.759C442.616,16.566,448.44,8.314,454.264,8.785C460.088,9.256,465.912,18.449,471.736,19.075C477.56,19.701,483.384,11.76,489.208,8.648C495.031,5.537,500.855,7.257,506.679,10.403C512.503,13.549,518.327,18.121,524.151,19.39C529.975,20.658,535.799,18.622,541.623,18.257C547.447,17.892,553.27,19.198,559.094,19.933C564.918,20.667,570.742,20.83,576.566,21.629C582.39,22.427,588.214,23.862,594.038,23.734C599.862,23.607,605.686,21.917,611.509,23.429C617.333,24.942,623.157,29.656,628.981,31.482C634.805,33.307,640.629,32.244,646.453,29.727C652.277,27.209,658.101,23.239,663.925,19.868C669.748,16.498,675.572,13.729,681.396,13.814C687.22,13.898,693.044,16.837,698.868,17.643C704.692,18.449,710.516,17.123,716.34,19.681C722.164,22.24,727.987,28.685,733.811,30.02C739.635,31.355,745.459,27.581,751.283,24.754C757.107,21.927,762.931,20.047,768.755,20.274C774.579,20.501,780.403,22.834,786.226,23.092C792.05,23.35,797.874,21.534,803.698,18.489C809.522,15.445,815.346,11.172,821.17,9.582C826.994,7.992,832.818,9.086,838.642,11.178C844.465,13.27,850.289,16.361,856.113,18.314C861.937,20.267,867.761,21.082,873.585,20.91C879.409,20.739,885.233,19.581,891.057,16.822C896.881,14.062,902.704,9.701,908.528,11.055C914.352,12.409,920.176,19.478,923.088,23.012L926,26.547L926,107L923.088,107C920.176,107,914.352,107,908.528,107C902.704,107,896.881,107,891.057,107C885.233,107,879.409,107,873.585,107C867.761,107,861.937,107,856.113,107C850.289,107,844.465,107,838.642,107C832.818,107,826.994,107,821.17,107C815.346,107,809.522,107,803.698,107C797.874,107,792.05,107,786.226,107C780.403,107,774.579,107,768.755,107C762.931,107,757.107,107,751.283,107C745.459,107,739.635,107,733.811,107C727.987,107,722.164,107,716.34,107C710.516,107,704.692,107,698.868,107C693.044,107,687.22,107,681.396,107C675.572,107,669.748,107,663.925,107C658.101,107,652.277,107,646.453,107C640.629,107,634.805,107,628.981,107C623.157,107,617.333,107,611.509,107C605.686,107,599.862,107,594.038,107C588.214,107,582.39,107,576.566,107C570.742,107,564.918,107,559.094,107C553.27,107,547.447,107,541.623,107C535.799,107,529.975,107,524.151,107C518.327,107,512.503,107,506.679,107C500.855,107,495.031,107,489.208,107C483.384,107,477.56,107,471.736,107C465.912,107,460.088,107,454.264,107C448.44,107,442.616,107,436.792,107C430.969,107,425.145,107,419.321,107C413.497,107,407.673,107,401.849,107C396.025,107,390.201,107,384.377,107C378.553,107,372.73,107,366.906,107C361.082,107,355.258,107,349.434,107C343.61,107,337.786,107,331.962,107C326.138,107,320.314,107,314.491,107C308.667,107,302.843,107,297.019,107C291.195,107,285.371,107,279.547,107C273.723,107,267.899,107,262.075,107C256.252,107,250.428,107,244.604,107C238.78,107,232.956,107,227.132,107C221.308,107,215.484,107,209.66,107C203.836,107,198.013,107,192.189,107C186.365,107,180.541,107,174.717,107C168.893,107,163.069,107,157.245,107C151.421,107,145.597,107,139.774,107C133.95,107,128.126,107,122.302,107C116.478,107,110.654,107,104.83,107C99.006,107,93.182,107,87.358,107C81.535,107,75.711,107,69.887,107C64.063,107,58.239,107,52.415,107C46.591,107,40.767,107,34.943,107C29.119,107,23.296,107,17.472,107C11.648,107,5.824,107,2.912,107L0,107Z"></path></g><g transform="translate(0, 356.6666666666667)"><path fill="rgb(15, 51, 100)" fill-opacity="1" d="M0,22.866L2.912,24.27C5.824,25.673,11.648,28.479,17.472,25.38C23.296,22.28,29.119,13.275,34.943,8.92C40.767,4.566,46.591,4.863,52.415,4.816C58.239,4.77,64.063,4.381,69.887,8.853C75.711,13.326,81.535,22.66,87.358,26.417C93.182,30.174,99.006,28.353,104.83,27.646C110.654,26.939,116.478,27.345,122.302,25.289C128.126,23.233,133.95,18.715,139.774,15.885C145.597,13.055,151.421,11.914,157.245,13.946C163.069,15.977,168.893,21.182,174.717,22.884C180.541,24.585,186.365,22.784,192.189,21.257C198.013,19.73,203.836,18.477,209.66,18.926C215.484,19.374,221.308,21.523,227.132,21.705C232.956,21.887,238.78,20.103,244.604,16.221C250.428,12.34,256.252,6.361,262.075,6.741C267.899,7.121,273.723,13.86,279.547,18.399C285.371,22.937,291.195,25.277,297.019,24.204C302.843,23.131,308.667,18.646,314.491,18.511C320.314,18.375,326.138,22.589,331.962,20.517C337.786,18.445,343.61,10.087,349.434,5.812C355.258,1.538,361.082,1.346,366.906,3.034C372.73,4.722,378.553,8.29,384.377,9.123C390.201,9.956,396.025,8.054,401.849,6.131C407.673,4.208,413.497,2.264,419.321,6.19C425.145,10.117,430.969,19.914,436.792,23.363C442.616,26.812,448.44,23.914,454.264,24.653C460.088,25.391,465.912,29.768,471.736,30.978C477.56,32.188,483.384,30.232,489.208,28.164C495.031,26.095,500.855,23.914,506.679,19.838C512.503,15.763,518.327,9.793,524.151,11.888C529.975,13.983,535.799,24.143,541.623,24.999C547.447,25.854,553.27,17.406,559.094,12.915C564.918,8.423,570.742,7.889,576.566,10.203C582.39,12.518,588.214,17.681,594.038,17.527C599.862,17.374,605.686,11.903,611.509,11.214C617.333,10.526,623.157,14.619,628.981,15.673C634.805,16.727,640.629,14.742,646.453,12.803C652.277,10.864,658.101,8.97,663.925,10.335C669.748,11.7,675.572,16.323,681.396,20.538C687.22,24.753,693.044,28.559,698.868,29.901C704.692,31.243,710.516,30.122,716.34,25.246C722.164,20.369,727.987,11.738,733.811,10.37C739.635,9.003,745.459,14.898,751.283,18.912C757.107,22.925,762.931,25.055,768.755,22.639C774.579,20.223,780.403,13.26,786.226,13.786C792.05,14.313,797.874,22.328,803.698,23.588C809.522,24.848,815.346,19.353,821.17,18.463C826.994,17.573,832.818,21.287,838.642,21.963C844.465,22.639,850.289,20.277,856.113,19.054C861.937,17.832,867.761,17.75,873.585,14.821C879.409,11.892,885.233,6.117,891.057,6.531C896.881,6.944,902.704,13.547,908.528,13.797C914.352,14.047,920.176,7.945,923.088,4.894L926,1.843L926,71.333L923.088,71.333C920.176,71.333,914.352,71.333,908.528,71.333C902.704,71.333,896.881,71.333,891.057,71.333C885.233,71.333,879.409,71.333,873.585,71.333C867.761,71.333,861.937,71.333,856.113,71.333C850.289,71.333,844.465,71.333,838.642,71.333C832.818,71.333,826.994,71.333,821.17,71.333C815.346,71.333,809.522,71.333,803.698,71.333C797.874,71.333,792.05,71.333,786.226,71.333C780.403,71.333,774.579,71.333,768.755,71.333C762.931,71.333,757.107,71.333,751.283,71.333C745.459,71.333,739.635,71.333,733.811,71.333C727.987,71.333,722.164,71.333,716.34,71.333C710.516,71.333,704.692,71.333,698.868,71.333C693.044,71.333,687.22,71.333,681.396,71.333C675.572,71.333,669.748,71.333,663.925,71.333C658.101,71.333,652.277,71.333,646.453,71.333C640.629,71.333,634.805,71.333,628.981,71.333C623.157,71.333,617.333,71.333,611.509,71.333C605.686,71.333,599.862,71.333,594.038,71.333C588.214,71.333,582.39,71.333,576.566,71.333C570.742,71.333,564.918,71.333,559.094,71.333C553.27,71.333,547.447,71.333,541.623,71.333C535.799,71.333,529.975,71.333,524.151,71.333C518.327,71.333,512.503,71.333,506.679,71.333C500.855,71.333,495.031,71.333,489.208,71.333C483.384,71.333,477.56,71.333,471.736,71.333C465.912,71.333,460.088,71.333,454.264,71.333C448.44,71.333,442.616,71.333,436.792,71.333C430.969,71.333,425.145,71.333,419.321,71.333C413.497,71.333,407.673,71.333,401.849,71.333C396.025,71.333,390.201,71.333,384.377,71.333C378.553,71.333,372.73,71.333,366.906,71.333C361.082,71.333,355.258,71.333,349.434,71.333C343.61,71.333,337.786,71.333,331.962,71.333C326.138,71.333,320.314,71.333,314.491,71.333C308.667,71.333,302.843,71.333,297.019,71.333C291.195,71.333,285.371,71.333,279.547,71.333C273.723,71.333,267.899,71.333,262.075,71.333C256.252,71.333,250.428,71.333,244.604,71.333C238.78,71.333,232.956,71.333,227.132,71.333C221.308,71.333,215.484,71.333,209.66,71.333C203.836,71.333,198.013,71.333,192.189,71.333C186.365,71.333,180.541,71.333,174.717,71.333C168.893,71.333,163.069,71.333,157.245,71.333C151.421,71.333,145.597,71.333,139.774,71.333C133.95,71.333,128.126,71.333,122.302,71.333C116.478,71.333,110.654,71.333,104.83,71.333C99.006,71.333,93.182,71.333,87.358,71.333C81.535,71.333,75.711,71.333,69.887,71.333C64.063,71.333,58.239,71.333,52.415,71.333C46.591,71.333,40.767,71.333,34.943,71.333C29.119,71.333,23.296,71.333,17.472,71.333C11.648,71.333,5.824,71.333,2.912,71.333L0,71.333Z"></path></g><g transform="translate(0, 392.3333333333333)"><path fill="rgb(19, 35, 99)" fill-opacity="1" d="M0,24.672L2.912,24.636C5.824,24.6,11.648,24.528,17.472,23.736C23.296,22.943,29.119,21.43,34.943,19.926C40.767,18.423,46.591,16.929,52.415,15.334C58.239,13.739,64.063,12.043,69.887,12.268C75.711,12.492,81.535,14.638,87.358,17.622C93.182,20.607,99.006,24.43,104.83,26.036C110.654,27.642,116.478,27.029,122.302,26.406C128.126,25.783,133.95,25.15,139.774,26.02C145.597,26.891,151.421,29.265,157.245,27.762C163.069,26.259,168.893,20.878,174.717,15.622C180.541,10.366,186.365,5.235,192.189,3.187C198.013,1.14,203.836,2.177,209.66,6.495C215.484,10.814,221.308,18.415,227.132,21.578C232.956,24.742,238.78,23.468,244.604,20.811C250.428,18.155,256.252,14.117,262.075,15.716C267.899,17.314,273.723,24.549,279.547,27.106C285.371,29.663,291.195,27.542,297.019,24.806C302.843,22.071,308.667,18.72,314.491,14.821C320.314,10.923,326.138,6.478,331.962,8.427C337.786,10.377,343.61,18.722,349.434,22.218C355.258,25.714,361.082,24.362,366.906,25.124C372.73,25.886,378.553,28.763,384.377,28.699C390.201,28.635,396.025,25.63,401.849,22.185C407.673,18.74,413.497,14.854,419.321,11.556C425.145,8.257,430.969,5.546,436.792,5.222C442.616,4.898,448.44,6.961,454.264,10.405C460.088,13.848,465.912,18.671,471.736,22.79C477.56,26.909,483.384,30.323,489.208,29.182C495.031,28.042,500.855,22.346,506.679,19.954C512.503,17.562,518.327,18.474,524.151,20.631C529.975,22.788,535.799,26.192,541.623,23.676C547.447,21.16,553.27,12.725,559.094,11.65C564.918,10.576,570.742,16.861,576.566,19.898C582.39,22.935,588.214,22.724,594.038,24.113C599.862,25.503,605.686,28.495,611.509,26.565C617.333,24.636,623.157,17.785,628.981,14.194C634.805,10.604,640.629,10.273,646.453,11.233C652.277,12.194,658.101,14.447,663.925,17.472C669.748,20.497,675.572,24.294,681.396,26.276C687.22,28.257,693.044,28.424,698.868,27.866C704.692,27.309,710.516,26.027,716.34,27.203C722.164,28.379,727.987,32.012,733.811,32.989C739.635,33.966,745.459,32.286,751.283,31.563C757.107,30.839,762.931,31.073,768.755,29.977C774.579,28.881,780.403,26.455,786.226,22.824C792.05,19.192,797.874,14.354,803.698,11.114C809.522,7.874,815.346,6.233,821.17,7.05C826.994,7.868,832.818,11.144,838.642,13.92C844.465,16.696,850.289,18.971,856.113,18.978C861.937,18.985,867.761,16.724,873.585,16.686C879.409,16.649,885.233,18.835,891.057,18.513C896.881,18.191,902.704,15.361,908.528,15.736C914.352,16.111,920.176,19.69,923.088,21.48L926,23.269L926,35.667L923.088,35.667C920.176,35.667,914.352,35.667,908.528,35.667C902.704,35.667,896.881,35.667,891.057,35.667C885.233,35.667,879.409,35.667,873.585,35.667C867.761,35.667,861.937,35.667,856.113,35.667C850.289,35.667,844.465,35.667,838.642,35.667C832.818,35.667,826.994,35.667,821.17,35.667C815.346,35.667,809.522,35.667,803.698,35.667C797.874,35.667,792.05,35.667,786.226,35.667C780.403,35.667,774.579,35.667,768.755,35.667C762.931,35.667,757.107,35.667,751.283,35.667C745.459,35.667,739.635,35.667,733.811,35.667C727.987,35.667,722.164,35.667,716.34,35.667C710.516,35.667,704.692,35.667,698.868,35.667C693.044,35.667,687.22,35.667,681.396,35.667C675.572,35.667,669.748,35.667,663.925,35.667C658.101,35.667,652.277,35.667,646.453,35.667C640.629,35.667,634.805,35.667,628.981,35.667C623.157,35.667,617.333,35.667,611.509,35.667C605.686,35.667,599.862,35.667,594.038,35.667C588.214,35.667,582.39,35.667,576.566,35.667C570.742,35.667,564.918,35.667,559.094,35.667C553.27,35.667,547.447,35.667,541.623,35.667C535.799,35.667,529.975,35.667,524.151,35.667C518.327,35.667,512.503,35.667,506.679,35.667C500.855,35.667,495.031,35.667,489.208,35.667C483.384,35.667,477.56,35.667,471.736,35.667C465.912,35.667,460.088,35.667,454.264,35.667C448.44,35.667,442.616,35.667,436.792,35.667C430.969,35.667,425.145,35.667,419.321,35.667C413.497,35.667,407.673,35.667,401.849,35.667C396.025,35.667,390.201,35.667,384.377,35.667C378.553,35.667,372.73,35.667,366.906,35.667C361.082,35.667,355.258,35.667,349.434,35.667C343.61,35.667,337.786,35.667,331.962,35.667C326.138,35.667,320.314,35.667,314.491,35.667C308.667,35.667,302.843,35.667,297.019,35.667C291.195,35.667,285.371,35.667,279.547,35.667C273.723,35.667,267.899,35.667,262.075,35.667C256.252,35.667,250.428,35.667,244.604,35.667C238.78,35.667,232.956,35.667,227.132,35.667C221.308,35.667,215.484,35.667,209.66,35.667C203.836,35.667,198.013,35.667,192.189,35.667C186.365,35.667,180.541,35.667,174.717,35.667C168.893,35.667,163.069,35.667,157.245,35.667C151.421,35.667,145.597,35.667,139.774,35.667C133.95,35.667,128.126,35.667,122.302,35.667C116.478,35.667,110.654,35.667,104.83,35.667C99.006,35.667,93.182,35.667,87.358,35.667C81.535,35.667,75.711,35.667,69.887,35.667C64.063,35.667,58.239,35.667,52.415,35.667C46.591,35.667,40.767,35.667,34.943,35.667C29.119,35.667,23.296,35.667,17.472,35.667C11.648,35.667,5.824,35.667,2.912,35.667L0,35.667Z"></path></g></g></svg>